<svg width="76" height="74" viewBox="0 0 76 74" fill="none" xmlns="http://www.w3.org/2000/svg">
<path d="M11.5885 50.0265C11.7131 48.4759 11.7138 48.476 11.7145 48.476L11.716 48.4761L11.7193 48.4764L11.7269 48.4771L11.7464 48.4789C11.7612 48.4803 11.7798 48.4821 11.8019 48.4846C11.846 48.4894 11.9042 48.4965 11.9753 48.5067C12.1172 48.527 12.3111 48.5596 12.5456 48.611C13.0129 48.7136 13.6508 48.8932 14.3638 49.2053C15.7935 49.8313 17.5548 51.0059 18.8004 53.1697L18.8052 53.1781L18.8052 53.1781C20.2098 55.6538 21.9742 56.4168 23.5608 56.5587C24.8852 56.6771 26.1801 56.365 27.1454 56.0096C27.3693 54.9642 27.7059 54.0362 28.1228 53.2285C24.71 52.767 21.1849 52.002 18.3482 50.0078C14.5987 47.3717 12.342 42.8426 12.342 35.2153C12.342 32.9776 12.6521 31.1882 13.3492 29.5641C13.9259 28.2201 14.7365 27.0637 15.7225 25.9109C15.1742 24.0064 14.5566 20.115 16.4313 15.3804L16.7052 14.6887L17.4156 14.4677C18.6689 14.078 20.0975 14.3275 21.3003 14.687C22.5621 15.0642 23.8692 15.6555 25.0231 16.2516C26.1852 16.852 27.2371 17.4811 27.9958 17.9579C28.2413 18.1122 28.4573 18.2513 28.6377 18.3692C31.6147 17.6023 34.7718 17.2079 37.8993 17.2079C41.0264 17.2079 44.183 17.6022 47.1597 18.3689C47.34 18.2507 47.5559 18.1113 47.8013 17.9567C48.56 17.4787 49.6121 16.848 50.7746 16.2464C51.9287 15.6492 53.2364 15.057 54.4991 14.6804C55.7028 14.3213 57.1339 14.0733 58.3894 14.4698L59.0958 14.6928L59.3679 15.3819C61.2404 20.1248 60.6253 24.0053 60.0773 25.908C61.0618 27.0391 61.9368 28.183 62.5841 29.5048C63.3784 31.1268 63.7908 32.9309 63.7908 35.2153C63.7908 42.8889 61.4233 47.4141 57.5752 50.0327C54.6779 52.0042 51.0979 52.7603 47.6723 53.2219C48.4546 54.7347 48.934 56.6802 48.934 59.0499C48.934 61.6135 48.9226 64.48 48.9112 66.8598C48.9073 67.6715 48.9035 68.4255 48.9 69.0914C48.8934 70.3822 48.8884 71.3419 48.8884 71.7496C48.8884 71.9118 48.9498 72.0006 48.9724 72.0213C48.9785 72.0268 49.0057 72.0522 49.0908 72.0721C49.1731 72.0913 49.3302 72.1095 49.5859 72.0729C64.0522 67.2147 73.8958 53.4424 73.8958 37.2812C73.8958 17.1291 57.5622 1.77083 37.2917 1.77083C17.0742 1.77083 1.65971 17.0772 1.65971 37.2812C1.65971 53.4211 11.7858 67.2084 26.2289 72.1033C26.4884 72.14 26.6473 72.1216 26.7301 72.1023C26.8133 72.0829 26.8394 72.0587 26.8441 72.0543L26.8444 72.0541C26.8624 72.0376 26.9253 71.9511 26.9253 71.7799C26.9253 71.4537 26.9198 70.6044 26.9125 69.4962C26.9094 69.027 26.906 68.5113 26.9026 67.9692C26.8951 66.7789 26.8876 65.4657 26.8834 64.2513C25.7881 64.3644 24.2868 64.4425 22.6912 64.2898C19.5878 63.9929 15.5386 62.7374 14.1072 58.4609M11.5885 50.0265L15.5686 57.9258M11.5885 50.0265L11.7131 48.4759L11.6604 48.4717L11.6076 48.471C11.0746 48.4645 10.585 48.4991 10.1564 48.599C9.74899 48.6939 9.22907 48.8863 8.82889 49.327C8.36544 49.8373 8.2549 50.4626 8.34023 50.9935C8.41431 51.4544 8.62683 51.8229 8.78793 52.0581C9.11569 52.5366 9.57051 52.9447 9.86538 53.1899C10.0264 53.3238 10.1713 53.4349 10.2769 53.5131C10.33 53.5525 10.3741 53.5843 10.4064 53.6072L10.4458 53.6349L10.4584 53.6437L10.4628 53.6467L10.4645 53.6479L10.4652 53.6484C10.4656 53.6486 10.4659 53.6489 11.3455 52.3659M11.5885 50.0265L11.3455 52.3659M14.1072 58.4609C14.1016 58.4442 14.096 58.4275 14.0905 58.4108L15.5686 57.9258M14.1072 58.4609C14.1074 58.4614 14.1075 58.4618 14.1077 58.4623L14.1188 58.4898L14.1204 58.4937C14.1203 58.4934 14.1202 58.4932 15.5686 57.9258M14.1072 58.4609C14.0965 58.4348 14.0798 58.3943 14.0573 58.3411C14.0112 58.2325 13.9411 58.072 13.8489 57.8739C13.6635 57.4758 13.3936 56.9369 13.0554 56.3701C12.3268 55.1489 11.4769 54.1365 10.6985 53.7805L10.5765 53.7247L10.4659 53.6489L11.3455 52.3659M15.5686 57.9258C15.5686 57.9258 13.8368 53.5052 11.3455 52.3659M21.254 59.2341C21.2602 59.2362 21.2664 59.2383 21.2727 59.2404C21.2749 59.2411 21.2771 59.2418 21.2793 59.2426L21.36 58.8809L21.3391 58.9504L21.3138 59.0347L21.254 59.2341ZM21.254 59.2341C21.0472 59.1642 20.8413 59.0856 20.6365 58.9978C20.6362 59.0179 20.6365 59.0377 20.6373 59.0571C20.7416 59.2221 20.9441 59.362 21.1977 59.4216L21.254 59.2341ZM16.9124 55.8304C16.8645 55.8153 16.8155 55.7942 16.7669 55.7674C16.6797 55.6441 16.5937 55.5174 16.5089 55.3873L16.9124 55.8304ZM16.9124 55.8304C16.9421 55.8397 16.9715 55.8468 17.0001 55.8514L16.9437 55.8055C16.9781 55.7632 17.0135 55.7231 17.0498 55.685M16.9124 55.8304C16.9546 55.7807 17.0003 55.7322 17.0498 55.685M17.0498 55.685C17.0656 55.6699 17.0819 55.655 17.0985 55.6401C17.1066 55.6329 17.1149 55.6256 17.1232 55.6184L17.1203 55.6148M17.0498 55.685C17.0653 55.6688 17.081 55.6529 17.0968 55.6374C17.1046 55.6298 17.1124 55.6223 17.1203 55.6148M17.1203 55.6148C17.1218 55.6134 17.1233 55.6119 17.1249 55.6105M17.1203 55.6148L16.9573 55.4142L16.7814 55.1977M17.1249 55.6105L17.1279 55.6144C17.1417 55.6025 17.1558 55.5908 17.1701 55.5792L17.3149 55.7574C17.33 55.7415 17.3439 55.7246 17.3565 55.7069C17.4242 55.6119 17.456 55.4928 17.4519 55.3632C17.3705 55.4119 17.2909 55.4678 17.2141 55.5316C17.1839 55.5567 17.1541 55.5829 17.1249 55.6105ZM17.1249 55.6105L16.8851 55.2988L16.7983 55.1859M16.7983 55.1859L16.8097 55.1781L16.7983 55.1859ZM16.7983 55.1859L16.798 55.1855L16.7765 55.1576L16.5724 54.8923M16.7983 55.1859L16.7814 55.1977M16.7983 55.1859L16.7814 55.1977M16.5724 54.8923C16.5862 54.8831 16.5998 54.8737 16.6135 54.8641C16.6257 54.8554 16.638 54.8466 16.6501 54.8375C16.699 54.8012 16.7471 54.7617 16.7944 54.7189M16.5724 54.8923L16.3528 54.6068C16.3725 54.5867 16.3946 54.5688 16.4193 54.5534C16.4443 54.5331 16.4709 54.5164 16.4988 54.5033L16.7145 54.7837C16.7421 54.7625 16.7687 54.7409 16.7944 54.7189M16.5724 54.8923C16.5639 54.898 16.5554 54.9036 16.5469 54.9091M16.7944 54.7189C16.8569 54.6654 16.9139 54.6097 16.9659 54.5522C16.8729 54.498 16.7748 54.4678 16.6812 54.466L16.866 54.6507C16.8424 54.6743 16.8185 54.697 16.7944 54.7189ZM16.5469 54.9091L16.3261 54.6374C16.2626 54.7191 16.233 54.8287 16.2374 54.9511C16.2562 54.9827 16.2751 55.0141 16.294 55.0453C16.3792 55.0077 16.4638 54.9626 16.5469 54.9091ZM16.5469 54.9091L16.7579 55.1689L16.781 55.1973L16.7814 55.1977M15.0391 53.3425L14.9761 53.3989L15.0358 53.3392M15.0391 53.3425C15.038 53.3414 15.0369 53.3403 15.0358 53.3392M15.0391 53.3425C15.0457 53.3489 15.0522 53.3553 15.0588 53.3618L15.0391 53.3425ZM15.0358 53.3392C15.0322 53.3357 15.0286 53.3322 15.025 53.3287M15.0358 53.3392L15.2267 53.1482L15.261 53.1176L15.2989 53.0837L15.323 53.0621L15.3628 53.0265L15.025 53.3287M15.5135 53.2879C15.5115 53.2893 15.5095 53.2908 15.5075 53.2923C15.4843 53.3095 15.4613 53.3275 15.4383 53.3461L15.6626 53.6221C15.6592 53.6236 15.6558 53.625 15.6524 53.6264C15.548 53.6688 15.4235 53.6599 15.2998 53.6133C15.2752 53.5861 15.2504 53.5593 15.2256 53.5328C15.289 53.4669 15.3589 53.4039 15.4358 53.3447C15.459 53.3268 15.4829 53.3093 15.5074 53.2921C15.5094 53.2907 15.5114 53.2893 15.5135 53.2879ZM15.5135 53.2879C15.5204 53.2831 15.5274 53.2783 15.5344 53.2735C15.5384 53.2708 15.5425 53.2681 15.5465 53.2654C15.5624 53.2549 15.5785 53.2445 15.5948 53.2343L15.761 53.5002L15.7835 53.5362C15.7859 53.5341 15.7883 53.5319 15.7906 53.5297C15.8954 53.4294 15.9147 53.2633 15.855 53.0857C15.7504 53.1338 15.6469 53.1929 15.5458 53.2645C15.5418 53.2673 15.5378 53.2702 15.5339 53.273C15.5271 53.2779 15.5203 53.2829 15.5135 53.2879ZM15.025 53.3287C15.0145 53.3186 15.0041 53.3085 14.9936 53.2984L15.025 53.3287ZM24.5418 59.6875C24.7345 59.6799 24.9247 59.667 25.112 59.6495C25.1181 59.6712 25.1246 59.6926 25.1314 59.7138C24.9967 59.8293 24.7948 59.9054 24.5646 59.9148C24.5485 59.9155 24.5324 59.9158 24.516 59.9158C24.4955 59.9177 24.4753 59.919 24.4553 59.92C24.1698 59.933 23.939 59.85 23.8022 59.7074C23.8003 59.7014 23.7984 59.6953 23.7966 59.6893C24.0188 59.6971 24.2386 59.6972 24.4553 59.6905C24.4687 59.6901 24.4821 59.6897 24.4954 59.6892C24.5023 59.6889 24.5092 59.6887 24.516 59.6884C24.5246 59.6881 24.5332 59.6878 24.5418 59.6875ZM22.0498 59.1992C22.0264 59.2661 21.9988 59.3263 21.9685 59.3805L22.1719 58.8759C22.159 58.8348 22.1403 58.7941 22.1164 58.7544C22.1218 58.8601 22.1123 58.9749 22.0808 59.0971C22.0722 59.1306 22.0619 59.1647 22.0498 59.1992ZM13.6599 52.0136C13.8193 52.0823 13.9915 52.0742 14.1123 51.9967L13.7426 51.7379L13.6599 52.0136ZM18.0347 57.2538C18.0751 57.4129 18.1757 57.5789 18.3295 57.7122C18.3357 57.7176 18.3421 57.723 18.3485 57.7283C18.3553 57.7351 18.3621 57.7418 18.369 57.7483C18.5566 57.9278 18.7681 58.0215 18.9534 58.0317L18.0347 57.2538ZM28.4353 62.4527C28.4353 62.4527 27.8308 62.5822 26.8798 62.6873L28.4382 64.0358C28.4364 63.4761 28.4353 62.9409 28.4353 62.4527ZM26.8569 59.5056C27.0042 59.5837 27.201 59.6163 27.4155 59.5818L27.3768 59.2081C27.2105 59.257 27.0385 59.304 26.8614 59.3481C26.8615 59.355 26.8615 59.362 26.8615 59.3689C26.8615 59.4153 26.86 59.4609 26.8569 59.5056ZM27.5663 59.5468L27.4773 59.1782C27.6911 59.1134 27.8952 59.0457 28.0882 58.977L28.1397 58.9702C28.1467 59.0235 28.1493 59.0752 28.1484 59.1251C28.0571 59.3084 27.8433 59.4644 27.5663 59.5468Z" fill="#5E953C" stroke="#5E953C" stroke-width="3.11111"/>
</svg>
