<svg width="69" height="69" viewBox="0 0 69 69" fill="none" xmlns="http://www.w3.org/2000/svg">
<path d="M34.2373 17.4193C24.5759 17.4193 16.7829 25.2123 16.7829 34.8738C16.7829 44.5352 24.5759 52.3282 34.2373 52.3282C43.8988 52.3282 51.6918 44.5352 51.6918 34.8738C51.6918 25.2123 43.8988 17.4193 34.2373 17.4193ZM34.2373 46.2214C27.9939 46.2214 22.8897 41.1324 22.8897 34.8738C22.8897 28.6151 27.9787 23.5261 34.2373 23.5261C40.496 23.5261 45.585 28.6151 45.585 34.8738C45.585 41.1324 40.4808 46.2214 34.2373 46.2214ZM56.4769 16.7054C56.4769 18.9688 54.654 20.7765 52.4058 20.7765C50.1423 20.7765 48.3346 18.9536 48.3346 16.7054C48.3346 14.4571 50.1575 12.6342 52.4058 12.6342C54.654 12.6342 56.4769 14.4571 56.4769 16.7054ZM68.0373 20.8373C67.779 15.3837 66.5334 10.553 62.5381 6.57298C58.5581 2.59295 53.7274 1.34729 48.2738 1.07385C42.6531 0.754842 25.8064 0.754842 20.1857 1.07385C14.7473 1.3321 9.9166 2.57776 5.92137 6.55779C1.92615 10.5378 0.695679 15.3686 0.422241 20.8221C0.103231 26.4428 0.103231 43.2896 0.422241 48.9102C0.680488 54.3638 1.92615 59.1945 5.92137 63.1745C9.9166 67.1546 14.7321 68.4002 20.1857 68.6737C25.8064 68.9927 42.6531 68.9927 48.2738 68.6737C53.7274 68.4154 58.5581 67.1698 62.5381 63.1745C66.5182 59.1945 67.7638 54.3638 68.0373 48.9102C68.3563 43.2896 68.3563 26.458 68.0373 20.8373ZM60.776 54.941C59.5911 57.9185 57.2972 60.2123 54.3046 61.4124C49.8233 63.1897 39.1896 62.7796 34.2373 62.7796C29.2851 62.7796 18.6362 63.1745 14.1701 61.4124C11.1926 60.2275 8.8988 57.9337 7.69872 54.941C5.92137 50.4597 6.33153 39.826 6.33153 34.8738C6.33153 29.9215 5.93656 19.2726 7.69872 14.8065C8.88361 11.8291 11.1774 9.53522 14.1701 8.33514C18.6514 6.55779 29.2851 6.96795 34.2373 6.96795C39.1896 6.96795 49.8385 6.57298 54.3046 8.33514C57.2821 9.52003 59.5759 11.8139 60.776 14.8065C62.5533 19.2878 62.1432 29.9215 62.1432 34.8738C62.1432 39.826 62.5533 50.4749 60.776 54.941Z" fill="#5E953C"/>
</svg>
