<svg width="70" height="69" viewBox="0 0 70 69" fill="none" xmlns="http://www.w3.org/2000/svg">
<path d="M64.1666 0.861145H5.81812C3.14451 0.861145 0.972198 3.06384 0.972198 5.76783V64.01C0.972198 66.714 3.14451 68.9167 5.81812 68.9167H64.1666C66.8403 68.9167 69.0278 66.714 69.0278 64.01V5.76783C69.0278 3.06384 66.8403 0.861145 64.1666 0.861145ZM21.5408 59.1945H11.454V26.7162H21.556V59.1945H21.5408ZM16.4974 22.2804C13.2617 22.2804 10.6488 19.6524 10.6488 16.4319C10.6488 13.2114 13.2617 10.5834 16.4974 10.5834C19.7179 10.5834 22.3459 13.2114 22.3459 16.4319C22.3459 19.6676 19.733 22.2804 16.4974 22.2804ZM59.3511 59.1945H49.2643V43.3959C49.2643 39.6285 49.1883 34.7826 44.0234 34.7826C38.7673 34.7826 37.9622 38.8842 37.9622 43.1224V59.1945H27.8754V26.7162H37.5521V31.1519H37.6888C39.0408 28.5999 42.3372 25.9111 47.2439 25.9111C57.4522 25.9111 59.3511 32.6407 59.3511 41.3907V59.1945Z" fill="#5E953C"/>
</svg>
